<svg width="512" height="512" viewBox="0 0 512 512" fill="none" xmlns="http://www.w3.org/2000/svg">
  <rect width="512" height="512" rx="112" fill="#526579"/>
  <rect x="46" y="46" width="420" height="420" rx="96" fill="url(#background)"/>
  <rect x="112" y="92" width="286" height="326" rx="56" fill="#F8FBFF"/>
  <rect x="112" y="92" width="286" height="326" rx="56" stroke="#B8C8DC" stroke-width="10"/>
  <rect x="146" y="128" width="218" height="252" rx="36" fill="#EDF5FF"/>
  <path d="M255 337V171" stroke="#0A84FF" stroke-width="42" stroke-linecap="round"/>
  <path d="M180 244L255 169L330 244" stroke="#0A84FF" stroke-width="42" stroke-linecap="round" stroke-linejoin="round"/>
  <path d="M255 337V171" stroke="#73C3FF" stroke-width="18" stroke-linecap="round"/>
  <path d="M180 244L255 169L330 244" stroke="#73C3FF" stroke-width="18" stroke-linecap="round" stroke-linejoin="round"/>
  <rect x="192" y="356" width="132" height="18" rx="9" fill="#A9BED4"/>
  <rect x="192" y="386" width="86" height="18" rx="9" fill="#C5D2E0"/>
  <circle cx="166" cy="365" r="10" fill="#30D158"/>
  <circle cx="166" cy="395" r="10" fill="#30D158"/>
  <defs>
    <linearGradient id="background" x1="74" y1="67" x2="442" y2="460" gradientUnits="userSpaceOnUse">
      <stop stop-color="#617487"/>
      <stop offset="0.45" stop-color="#405468"/>
      <stop offset="1" stop-color="#2E4054"/>
    </linearGradient>
  </defs>
</svg>
