<svg width="512" height="512" viewBox="0 0 512 512" fill="none" xmlns="http://www.w3.org/2000/svg">
  <rect width="512" height="512" rx="112" fill="url(#appIconBlue)"/>
  <path
    d="M85.2051 535.4L452.148 535.4C487.061 535.4 507.08 515.625 507.08 481.445L507.08 280.762C492.432 288.818 474.854 293.945 456.299 293.945C432.373 293.945 410.889 285.889 393.799 272.705C376.465 285.889 354.98 293.945 331.055 293.945C307.373 293.945 285.645 285.889 268.555 272.949C251.709 285.889 229.98 293.945 206.299 293.945C182.373 293.945 160.889 285.889 143.555 272.705C126.465 285.889 104.98 293.945 81.0547 293.945C62.5 293.945 45.166 289.551 30.0293 282.227L30.0293 481.445C30.0293 515.625 50.293 535.4 85.2051 535.4ZM112.061 496.094L112.061 363.037C112.061 351.807 119.629 344.482 130.859 344.482L226.807 344.482C238.037 344.482 245.361 351.807 245.361 363.037L245.361 496.094ZM318.604 437.012C307.373 437.012 299.805 429.688 299.805 418.457L299.805 351.807C299.805 340.576 307.373 333.252 318.604 333.252L417.725 333.252C428.955 333.252 436.279 340.576 436.279 351.807L436.279 418.457C436.279 429.688 428.955 437.012 417.725 437.012ZM59.3262 55.4199L475.098 55.4199L475.098 49.8047C475.098 18.7988 456.055 0 424.561 0L110.107 0C78.6133 0 59.3262 18.7988 59.3262 49.8047ZM3.90625 175.781L530.518 175.781C529.541 174.316 528.809 172.363 527.832 170.654L480.225 79.1016L54.1992 79.1016L6.5918 170.654C5.61523 172.363 4.88281 174.316 3.90625 175.781ZM79.834 270.264C105.713 270.264 128.174 258.301 142.334 239.258C156.25 258.301 178.955 270.264 204.834 270.264C230.957 270.264 253.418 258.057 267.334 239.258C281.25 258.057 303.711 270.264 329.834 270.264C355.957 270.264 378.418 258.301 392.578 239.258C406.494 258.301 428.955 270.264 454.834 270.264C499.268 270.264 534.668 235.352 534.668 203.857L534.668 199.463L0 199.463L0 208.74C0 240.234 35.6445 270.264 79.834 270.264Z"
    fill="white"
    transform="translate(74 74) scale(0.68)"
  />
  <defs>
    <linearGradient id="appIconBlue" x1="78" y1="42" x2="438" y2="482" gradientUnits="userSpaceOnUse">
      <stop stop-color="#19C8FF"/>
      <stop offset="0.48" stop-color="#0A84FF"/>
      <stop offset="1" stop-color="#0051D5"/>
    </linearGradient>
  </defs>
</svg>
